<svg xmlns="http://www.w3.org/2000/svg" viewBox="0 0 1000 520" role="img" aria-label="Digital world map">
  <defs>
    <radialGradient id="oceanGlow" cx="50%" cy="45%" r="75%">
      <stop offset="0%" stop-color="#0f172a"/>
      <stop offset="55%" stop-color="#020617"/>
      <stop offset="100%" stop-color="#020617"/>
    </radialGradient>
    <linearGradient id="landGradient" x1="0" y1="0" x2="1" y2="1">
      <stop offset="0%" stop-color="#67e8f9" stop-opacity="0.22"/>
      <stop offset="50%" stop-color="#38bdf8" stop-opacity="0.16"/>
      <stop offset="100%" stop-color="#a78bfa" stop-opacity="0.20"/>
    </linearGradient>
    <filter id="softGlow">
      <feGaussianBlur stdDeviation="1.3" result="blur"/>
      <feMerge>
        <feMergeNode in="blur"/>
        <feMergeNode in="SourceGraphic"/>
      </feMerge>
    </filter>
  </defs>
  <rect width="1000" height="520" fill="url(#oceanGlow)"/>
  <g opacity="0.18" stroke="#ffffff" stroke-width="0.7">
    <line x1="100" y1="0" x2="100" y2="520"/>
    <line x1="200" y1="0" x2="200" y2="520"/>
    <line x1="300" y1="0" x2="300" y2="520"/>
    <line x1="400" y1="0" x2="400" y2="520"/>
    <line x1="500" y1="0" x2="500" y2="520"/>
    <line x1="600" y1="0" x2="600" y2="520"/>
    <line x1="700" y1="0" x2="700" y2="520"/>
    <line x1="800" y1="0" x2="800" y2="520"/>
    <line x1="900" y1="0" x2="900" y2="520"/>
    <line x1="0" y1="80" x2="1000" y2="80"/>
    <line x1="0" y1="160" x2="1000" y2="160"/>
    <line x1="0" y1="240" x2="1000" y2="240"/>
    <line x1="0" y1="320" x2="1000" y2="320"/>
    <line x1="0" y1="400" x2="1000" y2="400"/>
    <line x1="0" y1="480" x2="1000" y2="480"/>
  </g>
  <g fill="url(#landGradient)" stroke="#67e8f9" stroke-opacity="0.22" stroke-width="0.8" filter="url(#softGlow)">
    <path d="M 996.1,308.1 L 1000.0,307.8 L 996.5,309.1 L 996.1,308.1 Z"/>
    <path d="M 993.5,310.2 L 996.0,312.4 L 992.7,312.5 L 993.5,310.2 Z"/>
    <path d="M 0.0,306.4 L 0.2,307.7 L 0.0,307.8 L 0.0,306.4 Z"/>
    <path d="M 594.2,262.7 L 608.9,273.5 L 608.9,284.5 L 612.0,289.8 L 609.8,291.5 L 596.0,293.3 L 593.7,287.2 L 585.4,284.1 L 582.3,278.8 L 581.5,273.0 L 585.4,269.7 L 584.5,263.3 L 594.2,262.7 Z"/>
    <path d="M 475.9,180.1 L 475.9,185.2 L 466.8,185.1 L 464.1,198.4 L 452.6,199.3 L 459.0,197.9 L 468.4,182.3 L 475.9,180.1 Z"/>
    <path d="M 158.8,118.4 L 151.0,114.4 L 146.0,113.2 L 144.9,108.8 L 137.5,103.2 L 138.9,98.5 L 123.7,87.3 L 118.2,89.8 L 108.3,85.8 L 108.4,58.6 L 120.8,61.0 L 144.1,56.4 L 150.7,59.3 L 154.4,57.3 L 154.8,59.5 L 179.9,60.9 L 183.6,62.4 L 179.7,63.8 L 184.7,64.5 L 197.6,65.3 L 200.6,63.9 L 197.7,62.7 L 199.5,61.7 L 205.1,61.2 L 218.2,64.6 L 228.7,61.9 L 233.0,62.9 L 233.0,65.6 L 238.2,60.5 L 232.0,57.5 L 235.5,52.2 L 242.0,54.0 L 245.8,57.2 L 243.3,58.6 L 248.5,59.2 L 248.5,62.2 L 252.2,59.9 L 255.5,61.8 L 257.4,65.9 L 262.4,58.1 L 270.5,58.8 L 274.2,60.2 L 272.3,63.2 L 273.9,66.1 L 261.8,67.7 L 257.4,72.9 L 248.0,76.2 L 238.2,84.1 L 237.0,89.7 L 241.1,90.2 L 243.6,95.1 L 271.5,100.7 L 271.9,106.1 L 278.0,112.1 L 281.7,108.2 L 278.3,102.1 L 287.4,96.7 L 281.9,90.1 L 285.2,87.1 L 283.0,80.0 L 294.9,79.6 L 306.7,83.6 L 307.5,89.7 L 312.1,91.8 L 320.6,85.7 L 329.5,95.4 L 328.3,97.2 L 340.7,102.2 L 345.3,109.4 L 333.2,114.9 L 315.6,114.9 L 302.5,124.7 L 319.3,117.8 L 321.7,119.2 L 319.1,121.1 L 320.9,126.4 L 324.5,127.9 L 329.1,127.4 L 331.9,124.2 L 333.9,127.3 L 318.4,134.2 L 316.2,131.5 L 321.0,129.2 L 313.5,129.6 L 311.7,124.0 L 307.7,122.9 L 301.4,130.0 L 292.0,130.0 L 271.0,139.6 L 269.1,138.7 L 271.8,134.1 L 270.7,129.0 L 254.5,120.5 L 245.4,120.9 L 236.6,117.3 L 158.8,118.4 Z"/>
    <path d="M 266.7,79.6 L 268.7,78.2 L 272.6,78.3 L 269.3,80.4 L 266.7,79.6 Z"/>
    <path d="M 282.2,49.5 L 275.5,47.1 L 288.2,49.6 L 282.2,49.5 Z"/>
    <path d="M 278.7,81.9 L 278.0,79.8 L 279.8,80.4 L 278.7,81.9 Z"/>
    <path d="M 240.0,43.4 L 238.5,44.5 L 231.1,43.5 L 236.5,41.5 L 240.0,43.4 Z"/>
    <path d="M 239.3,36.1 L 232.9,36.0 L 232.1,35.1 L 237.7,35.2 L 239.3,36.1 Z"/>
    <path d="M 226.0,32.1 L 234.6,33.5 L 229.7,35.1 L 226.0,32.1 Z"/>
    <path d="M 278.2,43.6 L 243.3,43.8 L 239.2,39.5 L 230.2,38.3 L 245.5,38.2 L 252.3,41.6 L 274.6,41.3 L 278.2,43.6 Z"/>
    <path d="M 186.9,34.5 L 194.8,34.7 L 184.6,35.4 L 186.9,34.5 Z"/>
    <path d="M 190.3,32.2 L 195.4,32.9 L 187.4,33.5 L 190.3,32.2 Z"/>
    <path d="M 345.6,111.8 L 342.2,116.1 L 351.5,117.7 L 352.6,125.2 L 349.5,124.8 L 349.3,122.0 L 346.1,124.6 L 335.4,122.5 L 340.7,113.5 L 345.6,111.8 Z"/>
    <path d="M 261.4,70.1 L 273.5,75.2 L 277.5,75.9 L 257.7,76.4 L 261.4,70.1 Z"/>
    <path d="M 275.7,51.8 L 308.9,56.3 L 314.0,60.1 L 308.9,61.5 L 328.2,66.8 L 322.4,72.2 L 311.1,68.6 L 320.4,76.9 L 319.4,78.9 L 308.9,75.8 L 316.2,81.1 L 308.7,79.9 L 292.1,73.1 L 281.8,73.5 L 294.6,70.9 L 298.2,65.6 L 296.4,63.4 L 280.7,57.3 L 253.7,56.6 L 251.4,55.6 L 254.3,54.3 L 250.3,54.2 L 249.4,51.3 L 254.4,47.6 L 261.6,46.8 L 259.5,48.7 L 261.7,50.5 L 271.3,46.9 L 275.7,51.8 Z"/>
    <path d="M 233.3,47.8 L 243.3,45.9 L 248.6,46.6 L 235.0,51.8 L 233.3,47.8 Z"/>
    <path d="M 158.7,40.1 L 169.2,36.1 L 177.2,35.7 L 174.7,38.9 L 158.7,40.1 Z"/>
    <path d="M 130.4,105.7 L 134.0,103.7 L 133.2,106.9 L 135.6,109.3 L 130.4,105.7 Z"/>
    <path d="M 207.0,30.9 L 219.9,32.4 L 223.1,34.9 L 207.8,33.6 L 210.5,32.7 L 207.0,30.9 Z"/>
    <path d="M 156.9,119.9 L 151.0,118.9 L 143.4,113.3 L 150.7,114.7 L 156.9,119.9 Z"/>
    <path d="M 153.0,45.4 L 173.5,45.7 L 179.1,47.7 L 168.8,50.5 L 165.4,53.8 L 158.1,55.2 L 150.2,52.4 L 155.7,47.1 L 153.0,45.4 Z"/>
    <path d="M 195.6,38.2 L 206.4,41.9 L 188.3,45.0 L 183.7,44.1 L 189.5,42.9 L 173.0,42.7 L 179.4,39.1 L 197.0,42.0 L 193.1,39.2 L 195.6,38.2 Z"/>
    <path d="M 204.1,48.9 L 209.8,54.9 L 219.2,59.0 L 214.6,59.2 L 215.5,61.4 L 205.7,60.1 L 185.2,62.0 L 174.1,57.9 L 187.7,56.7 L 172.5,56.2 L 171.0,55.2 L 177.5,54.0 L 168.3,53.3 L 180.0,48.2 L 182.9,48.8 L 181.5,50.1 L 194.7,49.2 L 199.5,53.0 L 198.9,48.9 L 204.1,48.9 Z"/>
    <path d="M 221.0,50.0 L 217.9,48.1 L 229.5,46.9 L 227.6,49.1 L 231.8,50.4 L 231.3,53.0 L 226.8,54.1 L 215.3,50.5 L 221.0,50.0 Z"/>
    <path d="M 203.9,47.4 L 207.6,47.3 L 209.7,47.9 L 207.3,49.8 L 203.9,47.4 Z"/>
    <path d="M 215.1,39.5 L 228.5,39.7 L 227.3,43.3 L 215.3,41.7 L 215.1,39.5 Z"/>
    <path d="M 231.4,28.4 L 243.3,25.3 L 261.6,30.8 L 242.0,33.7 L 239.0,32.5 L 241.3,30.7 L 231.4,28.4 Z"/>
    <path d="M 245.6,23.4 L 279.7,19.8 L 328.2,21.3 L 312.1,24.6 L 318.1,24.5 L 302.3,29.5 L 286.4,30.8 L 290.6,33.1 L 278.4,36.9 L 283.6,38.2 L 276.2,39.9 L 251.4,39.1 L 256.2,37.0 L 254.8,35.0 L 264.0,36.0 L 255.7,33.6 L 263.6,30.8 L 258.5,28.2 L 272.6,27.5 L 256.7,27.4 L 245.6,23.4 Z"/>
    <path d="M 291.1,65.2 L 286.1,66.2 L 285.5,64.7 L 289.2,62.7 L 291.1,65.2 Z"/>
    <path d="M 227.2,57.4 L 234.3,60.4 L 232.6,61.4 L 222.8,59.5 L 227.2,57.4 Z"/>
    <path d="M 320.8,115.9 L 325.4,116.4 L 328.3,118.1 L 323.4,117.3 L 320.8,115.9 Z"/>
    <path d="M 321.8,126.0 L 323.2,125.5 L 327.7,125.8 L 325.3,127.2 L 321.8,126.0 Z"/>
    <path d="M 158.8,118.4 L 236.6,117.3 L 245.4,120.9 L 254.5,120.5 L 270.7,129.0 L 270.3,139.6 L 292.0,130.0 L 301.4,130.0 L 307.7,122.9 L 311.7,124.0 L 314.0,130.5 L 305.2,133.8 L 303.3,137.7 L 305.7,139.7 L 295.2,141.8 L 300.2,141.8 L 294.6,142.3 L 291.9,147.5 L 290.2,145.9 L 291.5,149.1 L 289.1,152.5 L 287.9,146.9 L 288.0,150.0 L 286.1,149.5 L 289.6,157.3 L 274.1,169.2 L 276.7,187.2 L 273.0,185.3 L 267.5,173.5 L 260.0,172.2 L 251.1,172.9 L 251.6,175.8 L 237.0,174.8 L 230.2,179.6 L 229.1,185.4 L 224.9,183.8 L 219.6,175.1 L 211.3,175.4 L 204.1,168.3 L 191.6,169.5 L 181.3,165.5 L 174.6,166.0 L 164.9,160.0 L 154.4,143.5 L 155.8,128.5 L 153.6,120.8 L 159.5,123.9 L 158.8,118.4 Z"/>
    <path d="M 66.5,203.1 L 70.0,203.6 L 67.5,205.4 L 66.5,203.1 Z"/>
    <path d="M 65.0,199.3 L 65.5,200.6 L 64.7,199.5 L 65.0,199.3 Z"/>
    <path d="M 63.2,198.7 L 64.5,199.1 L 63.0,199.1 L 63.2,198.7 Z"/>
    <path d="M 60.8,198.4 L 62.1,198.4 L 61.9,198.6 L 60.8,198.4 Z"/>
    <path d="M 56.7,195.8 L 57.0,196.8 L 56.1,196.3 L 56.7,195.8 Z"/>
    <path d="M 34.8,86.1 L 39.8,85.8 L 40.1,86.9 L 34.8,86.1 Z"/>
    <path d="M 70.4,94.0 L 77.4,93.6 L 70.8,95.4 L 70.4,94.0 Z"/>
    <path d="M 108.4,58.6 L 108.3,85.8 L 118.2,89.8 L 123.7,87.3 L 138.9,98.5 L 137.4,101.7 L 127.6,92.1 L 120.5,91.8 L 111.5,88.0 L 91.3,84.1 L 78.6,89.1 L 81.6,83.0 L 59.9,98.2 L 41.8,102.3 L 59.2,95.3 L 63.8,89.8 L 50.1,90.5 L 48.6,86.7 L 40.7,85.2 L 39.6,80.7 L 42.9,77.6 L 53.4,75.8 L 51.3,73.9 L 53.4,72.8 L 41.8,73.8 L 33.0,70.3 L 43.1,67.7 L 50.9,69.0 L 36.8,62.5 L 38.3,61.0 L 65.1,53.9 L 108.4,58.6 Z"/>
    <path d="M 23.0,75.7 L 26.4,76.0 L 31.4,77.1 L 29.1,78.1 L 23.0,75.7 Z"/>
    <path d="M 742.7,117.8 L 736.6,124.2 L 731.1,123.3 L 729.1,128.4 L 722.1,130.2 L 724.6,135.3 L 722.9,137.7 L 706.1,134.9 L 704.1,137.2 L 697.7,136.6 L 690.6,142.5 L 685.3,141.1 L 680.3,133.7 L 672.3,134.3 L 662.5,128.3 L 655.4,130.0 L 655.5,140.7 L 650.2,137.7 L 645.8,139.3 L 645.8,136.4 L 639.7,131.1 L 647.3,129.3 L 647.3,124.6 L 636.4,126.0 L 629.1,120.2 L 632.1,114.2 L 634.9,115.9 L 641.0,110.7 L 654.8,113.8 L 670.4,113.2 L 666.6,109.9 L 671.4,106.9 L 670.7,104.0 L 691.9,100.0 L 704.0,105.5 L 713.6,102.6 L 722.3,113.1 L 731.6,112.5 L 742.7,117.8 Z"/>
    <path d="M 655.5,140.7 L 655.4,130.0 L 662.5,128.3 L 672.3,134.3 L 680.3,133.7 L 685.3,141.1 L 689.6,142.5 L 697.1,137.9 L 695.6,140.1 L 702.9,141.9 L 699.4,144.0 L 692.6,142.3 L 688.1,145.7 L 690.0,149.8 L 688.4,152.7 L 662.9,136.5 L 655.5,140.7 Z"/>
    <path d="M 891.7,267.5 L 910.1,277.6 L 908.9,281.3 L 918.6,290.6 L 910.9,289.3 L 902.1,282.0 L 896.2,286.9 L 891.8,286.3 L 891.7,267.5 Z"/>
    <path d="M 919.3,267.2 L 924.5,273.8 L 918.5,267.9 L 919.3,267.2 Z"/>
    <path d="M 920.3,276.9 L 915.9,278.2 L 912.0,276.6 L 918.9,275.8 L 922.6,272.0 L 920.3,276.9 Z"/>
    <path d="M 929.9,275.4 L 933.4,278.9 L 933.0,279.7 L 931.0,278.9 L 929.9,275.4 Z"/>
    <path d="M 891.7,267.5 L 891.8,286.3 L 889.3,284.0 L 882.3,284.3 L 885.2,281.1 L 883.1,275.6 L 871.3,270.2 L 869.4,271.9 L 866.6,268.1 L 871.4,266.4 L 862.6,262.7 L 872.2,262.3 L 873.4,268.0 L 876.3,269.7 L 881.8,264.9 L 891.7,267.5 Z"/>
    <path d="M 847.1,285.7 L 845.7,289.3 L 842.9,289.6 L 844.4,286.8 L 847.1,285.7 Z"/>
    <path d="M 872.8,279.9 L 872.5,277.7 L 873.6,275.7 L 874.2,278.0 L 872.8,279.9 Z"/>
    <path d="M 827.5,248.0 L 825.9,250.7 L 830.5,257.4 L 827.3,257.7 L 822.6,271.6 L 806.2,268.5 L 802.6,258.8 L 804.6,254.2 L 807.0,257.8 L 816.1,256.5 L 821.8,247.6 L 827.5,248.0 Z"/>
    <path d="M 855.3,269.8 L 862.4,268.9 L 863.4,271.1 L 855.3,269.8 Z"/>
    <path d="M 852.8,269.0 L 850.5,270.4 L 850.0,269.2 L 852.8,269.0 Z"/>
    <path d="M 855.4,253.7 L 857.5,256.7 L 855.8,262.6 L 853.9,257.1 L 855.4,253.7 Z"/>
    <path d="M 835.8,256.2 L 847.9,255.9 L 843.6,259.3 L 833.8,259.3 L 833.4,261.5 L 835.9,264.1 L 842.6,261.8 L 837.5,265.5 L 842.1,275.4 L 839.5,275.3 L 840.9,272.9 L 837.5,273.2 L 836.0,267.6 L 832.8,276.4 L 829.9,268.1 L 832.8,259.6 L 835.8,256.2 Z"/>
    <path d="M 834.2,289.6 L 830.5,287.6 L 833.1,287.0 L 834.2,289.6 Z"/>
    <path d="M 833.1,285.5 L 838.9,284.4 L 841.4,283.4 L 841.0,285.0 L 833.1,285.5 Z"/>
    <path d="M 827.5,283.4 L 830.9,285.2 L 824.3,286.1 L 827.5,283.4 Z"/>
    <path d="M 794.6,277.0 L 812.8,280.1 L 821.4,284.2 L 792.7,279.8 L 794.6,277.0 Z"/>
    <path d="M 770.8,244.8 L 794.7,268.8 L 793.9,276.9 L 785.0,272.2 L 764.7,244.2 L 770.8,244.8 Z"/>
    <path d="M 309.3,412.1 L 311.8,415.6 L 319.3,418.0 L 309.4,418.5 L 309.3,412.1 Z"/>
    <path d="M 339.9,347.3 L 337.5,359.5 L 342.3,366.6 L 335.5,371.9 L 326.8,372.2 L 325.7,378.5 L 319.1,378.6 L 319.5,381.5 L 323.7,383.0 L 318.9,385.7 L 317.9,390.1 L 313.1,391.6 L 312.3,393.8 L 317.7,396.5 L 307.9,406.6 L 310.7,411.2 L 300.2,410.2 L 296.1,402.5 L 302.2,389.4 L 299.6,382.1 L 306.1,358.8 L 304.1,350.6 L 310.3,337.7 L 310.0,330.8 L 315.9,323.1 L 321.2,325.9 L 325.4,323.7 L 339.5,332.7 L 337.2,338.4 L 345.3,339.1 L 349.6,333.8 L 351.0,337.8 L 339.9,347.3 Z"/>
    <path d="M 309.3,412.1 L 309.4,418.5 L 314.0,418.6 L 310.7,420.7 L 302.8,419.0 L 292.6,412.6 L 302.5,416.2 L 309.3,412.1 Z"/>
    <path d="M 306.7,310.8 L 311.6,326.1 L 313.9,326.4 L 310.0,330.8 L 310.3,337.7 L 304.1,350.6 L 306.1,358.8 L 299.6,382.1 L 302.2,389.4 L 296.1,402.5 L 300.2,410.2 L 309.5,411.1 L 301.6,415.6 L 291.8,411.0 L 290.0,400.6 L 294.1,395.6 L 289.9,394.8 L 293.5,387.4 L 296.6,388.4 L 298.0,382.4 L 293.5,384.9 L 296.6,373.4 L 295.6,367.3 L 301.6,353.7 L 304.5,313.0 L 306.7,310.8 Z"/>
    <path d="M 581.5,273.0 L 585.4,284.1 L 579.8,284.6 L 578.8,294.1 L 582.3,295.2 L 582.5,298.3 L 575.5,293.5 L 561.5,292.0 L 560.4,281.1 L 555.8,280.1 L 548.5,283.3 L 545.4,277.0 L 533.8,276.7 L 544.5,270.2 L 554.1,245.5 L 562.2,248.4 L 571.3,244.8 L 582.5,246.7 L 586.6,253.6 L 583.0,258.3 L 581.5,273.0 Z"/>
    <path d="M 615.5,264.9 L 613.8,252.0 L 617.0,247.8 L 624.9,245.6 L 635.9,232.7 L 636.0,227.0 L 642.0,225.3 L 635.0,244.6 L 615.5,264.9 Z"/>
    <path d="M 608.9,273.5 L 594.2,262.7 L 597.3,254.5 L 594.5,247.7 L 598.1,244.1 L 605.9,249.6 L 616.3,248.7 L 613.8,252.0 L 615.5,264.9 L 608.9,273.5 Z"/>
    <path d="M 568.2,236.2 L 566.1,235.0 L 565.2,234.1 L 560.9,223.6 L 564.0,214.7 L 566.4,214.9 L 566.3,202.2 L 569.4,202.2 L 569.4,196.4 L 602.4,196.4 L 604.1,206.2 L 606.7,208.0 L 602.4,211.0 L 594.4,234.9 L 591.0,224.6 L 587.1,231.7 L 574.3,232.7 L 569.6,230.3 L 566.4,235.1 L 568.2,236.2 Z"/>
    <path d="M 566.2,203.4 L 566.4,214.9 L 564.0,214.7 L 560.9,223.6 L 563.5,227.8 L 549.9,237.2 L 542.4,238.6 L 538.8,232.4 L 543.0,231.2 L 537.6,218.5 L 542.4,212.0 L 544.2,201.1 L 541.3,194.0 L 544.1,192.4 L 566.2,203.4 Z"/>
    <path d="M 300.8,203.0 L 300.8,207.9 L 293.2,207.0 L 299.1,206.1 L 296.7,202.5 L 300.8,203.0 Z"/>
    <path d="M 301.7,209.2 L 301.1,202.6 L 310.2,206.2 L 301.7,209.2 Z"/>
    <path d="M 996.5,54.6 L 1000.0,53.4 L 1000.0,55.4 L 996.5,54.6 Z"/>
    <path d="M 636.4,126.0 L 629.7,131.1 L 635.0,139.2 L 632.8,141.1 L 601.9,129.3 L 608.7,124.1 L 606.3,122.6 L 610.4,121.6 L 611.3,116.7 L 598.2,113.9 L 593.8,108.8 L 588.3,109.5 L 587.0,106.7 L 590.8,105.9 L 585.8,99.5 L 578.3,97.7 L 575.8,94.0 L 576.2,90.4 L 580.9,86.6 L 578.0,85.2 L 587.5,78.4 L 583.4,76.4 L 584.6,74.5 L 582.1,72.4 L 583.9,69.9 L 580.7,66.6 L 583.3,64.4 L 579.0,62.5 L 579.4,60.5 L 589.3,58.0 L 614.1,65.1 L 614.2,67.0 L 606.6,69.3 L 592.2,67.5 L 596.7,69.6 L 597.1,73.9 L 602.8,75.5 L 603.3,71.8 L 610.0,73.6 L 612.3,72.9 L 610.5,70.8 L 616.9,68.0 L 622.1,69.1 L 623.7,67.1 L 620.7,61.9 L 628.5,62.8 L 630.1,64.5 L 626.6,66.4 L 628.7,67.4 L 649.2,61.1 L 651.3,61.2 L 648.6,63.0 L 663.3,61.0 L 666.5,62.8 L 669.7,60.8 L 666.8,59.2 L 668.2,58.2 L 690.3,63.3 L 692.2,61.8 L 685.9,59.4 L 685.3,54.8 L 694.3,49.0 L 702.2,51.4 L 699.6,53.7 L 702.2,56.6 L 701.6,60.6 L 704.6,62.4 L 698.0,68.4 L 701.2,68.8 L 708.5,64.2 L 708.2,60.7 L 704.4,58.9 L 706.7,56.0 L 703.1,53.6 L 708.0,51.6 L 707.4,49.6 L 710.2,51.1 L 709.1,53.9 L 712.1,54.4 L 710.8,52.4 L 715.5,51.2 L 726.4,52.7 L 723.6,47.2 L 741.2,46.4 L 738.9,44.9 L 742.1,43.0 L 779.9,39.2 L 789.9,35.5 L 797.9,39.1 L 817.0,40.9 L 803.9,45.7 L 842.2,49.2 L 842.4,47.0 L 852.7,47.5 L 864.7,55.5 L 867.4,52.5 L 888.5,53.5 L 886.5,50.8 L 890.2,49.5 L 915.3,51.4 L 924.9,55.3 L 941.7,55.3 L 947.1,59.4 L 966.2,59.0 L 971.0,61.6 L 974.5,60.6 L 973.5,57.5 L 1000.0,60.8 L 1000.0,72.3 L 992.8,73.4 L 997.9,80.0 L 982.4,81.9 L 973.1,87.0 L 969.2,85.0 L 954.3,87.0 L 950.0,91.7 L 953.3,93.6 L 950.3,101.5 L 945.5,103.0 L 935.5,112.6 L 931.8,100.0 L 933.1,96.0 L 954.6,83.4 L 956.9,79.3 L 944.8,85.1 L 942.5,81.5 L 935.3,82.5 L 928.4,87.4 L 930.7,89.1 L 895.0,89.4 L 875.4,101.9 L 883.8,104.7 L 888.6,103.5 L 892.6,106.6 L 889.1,120.0 L 874.6,134.6 L 867.4,135.0 L 863.3,138.0 L 864.0,130.1 L 869.7,129.6 L 875.1,120.0 L 863.9,121.9 L 859.4,117.2 L 854.6,116.2 L 849.9,107.5 L 843.3,105.6 L 833.8,107.6 L 835.4,109.9 L 827.4,117.0 L 817.7,114.8 L 801.3,117.6 L 774.6,109.6 L 770.2,116.3 L 756.2,113.2 L 742.7,117.8 L 731.6,112.5 L 722.3,113.1 L 713.6,102.6 L 704.0,105.5 L 691.9,100.0 L 670.7,104.0 L 671.4,106.9 L 666.6,109.9 L 670.4,113.2 L 654.8,113.8 L 641.0,110.7 L 634.9,115.9 L 632.1,114.2 L 629.1,120.2 L 636.4,126.0 Z"/>
    <path d="M 753.3,27.9 L 766.5,25.3 L 778.3,29.5 L 777.6,32.1 L 771.5,32.5 L 753.3,27.9 Z"/>
    <path d="M 781.3,31.1 L 792.7,32.6 L 776.2,34.9 L 781.3,31.1 Z"/>
    <path d="M 880.5,42.6 L 893.0,40.2 L 903.0,41.7 L 900.8,43.9 L 886.0,44.5 L 880.5,42.6 Z"/>
    <path d="M 911.7,42.3 L 918.7,43.1 L 905.9,42.8 L 911.7,42.3 Z"/>
    <path d="M 888.5,48.0 L 894.6,46.6 L 898.9,48.5 L 894.7,48.5 L 888.5,48.0 Z"/>
    <path d="M 624.6,27.2 L 639.0,26.2 L 643.1,26.9 L 632.2,28.9 L 624.6,27.2 Z"/>
    <path d="M 563.1,103.1 L 558.0,103.1 L 554.6,102.8 L 559.1,100.6 L 563.1,103.1 Z"/>
    <path d="M 648.6,46.9 L 654.5,43.1 L 669.9,39.7 L 691.3,38.9 L 662.4,45.3 L 653.9,50.9 L 659.8,55.7 L 643.3,53.5 L 651.2,47.3 L 648.6,46.9 Z"/>
    <path d="M 895.0,103.3 L 901.8,118.5 L 897.7,117.6 L 896.0,121.7 L 898.6,126.7 L 896.5,125.0 L 894.7,127.2 L 893.6,106.0 L 895.0,103.3 Z"/>
    <path d="M 0.0,60.8 L 15.7,68.4 L 15.1,66.3 L 22.6,66.7 L 28.1,69.4 L 20.7,71.0 L 19.6,74.4 L 3.6,69.0 L 0.3,69.7 L 0.0,72.3 L 0.0,60.8 Z"/>
    <path d="M 6.7,54.1 L 0.0,55.4 L 0.0,53.4 L 6.7,54.1 Z"/>
    <path d="M 590.2,129.1 L 593.6,126.5 L 601.5,128.6 L 594.1,131.8 L 590.2,129.1 Z"/>
    <path d="M 280.8,183.7 L 283.8,182.5 L 283.8,183.2 L 280.8,183.7 Z"/>
    <path d="M 283.9,181.9 L 286.1,183.2 L 285.6,185.2 L 285.2,183.4 L 283.9,181.9 Z"/>
    <path d="M 282.2,189.0 L 283.6,187.3 L 284.6,191.4 L 282.2,189.0 Z"/>
    <path d="M 330.0,409.8 L 337.4,407.6 L 339.6,408.9 L 335.0,410.8 L 330.0,409.8 Z"/>
    <path d="M 529.0,29.9 L 547.2,28.7 L 559.8,31.9 L 544.2,38.2 L 529.0,29.9 Z"/>
    <path d="M 586.4,59.1 L 579.4,60.5 L 580.6,58.5 L 577.0,57.3 L 568.7,61.7 L 559.0,59.6 L 555.2,62.4 L 550.0,61.9 L 537.7,75.0 L 534.9,74.9 L 534.2,86.3 L 530.6,90.0 L 528.8,88.2 L 523.3,91.5 L 515.7,90.7 L 513.9,81.0 L 553.3,58.3 L 578.2,54.4 L 586.9,56.5 L 583.3,57.2 L 586.4,59.1 Z"/>
    <path d="M 576.1,28.7 L 564.0,30.6 L 548.2,28.0 L 563.7,27.0 L 576.1,28.7 Z"/>
    <path d="M 568.7,35.1 L 562.5,36.3 L 557.6,35.6 L 563.6,33.4 L 568.7,35.1 Z"/>
    <path d="M 370.1,21.3 L 424.7,18.7 L 442.1,21.0 L 411.4,22.5 L 438.7,23.9 L 435.6,25.6 L 456.2,23.4 L 466.1,25.2 L 444.3,28.4 L 450.7,28.5 L 445.3,32.5 L 445.4,35.7 L 448.7,37.6 L 439.8,38.6 L 444.9,40.2 L 445.6,42.6 L 442.6,42.9 L 446.2,45.4 L 434.5,48.2 L 438.1,51.5 L 431.1,51.0 L 439.6,55.9 L 429.0,53.6 L 430.0,55.6 L 426.8,57.1 L 437.9,57.4 L 389.4,70.9 L 381.1,78.9 L 379.5,86.4 L 365.9,84.2 L 356.6,76.2 L 350.1,65.9 L 358.7,58.0 L 348.1,58.9 L 349.0,55.4 L 357.2,56.1 L 344.9,53.0 L 348.0,50.3 L 337.3,41.8 L 309.7,40.3 L 301.7,37.5 L 314.5,36.5 L 296.4,34.5 L 317.5,30.6 L 311.0,28.6 L 327.1,25.1 L 326.0,23.8 L 360.0,21.8 L 376.3,24.1 L 370.1,21.3 Z"/>
    <path d="M 691.5,400.5 L 695.9,401.7 L 696.0,402.3 L 691.0,403.8 L 691.5,400.5 Z"/>
    <path d="M 847.5,287.1 L 849.9,284.4 L 853.7,284.3 L 847.5,287.1 Z"/>
    <path d="M 545.4,342.6 L 555.3,342.2 L 555.3,331.6 L 558.0,337.5 L 560.0,337.2 L 564.8,333.0 L 571.3,333.6 L 581.8,323.8 L 586.6,324.3 L 588.7,330.4 L 588.4,334.7 L 585.2,337.3 L 591.2,337.3 L 589.5,343.1 L 578.4,354.7 L 555.8,360.5 L 551.0,358.6 L 550.6,351.5 L 545.4,342.6 Z"/>
    <path d="M 580.5,343.6 L 578.1,348.2 L 575.0,346.3 L 578.0,343.3 L 580.5,343.6 Z"/>
    <path d="M 174.6,166.0 L 181.3,165.5 L 191.6,169.5 L 204.1,168.3 L 211.3,175.4 L 217.6,174.0 L 224.9,183.8 L 230.2,185.3 L 228.1,195.2 L 233.6,205.6 L 237.7,207.6 L 246.1,205.5 L 249.2,199.3 L 258.2,197.8 L 256.0,207.2 L 247.2,208.5 L 248.7,213.6 L 245.1,213.6 L 243.8,218.0 L 239.2,214.0 L 231.8,214.8 L 212.5,207.2 L 207.0,202.4 L 205.5,194.2 L 188.3,176.4 L 185.7,170.0 L 180.7,169.3 L 196.1,192.5 L 194.8,194.1 L 188.4,188.5 L 188.1,184.9 L 180.4,179.9 L 182.9,177.5 L 174.6,166.0 Z"/>
    <path d="M 339.9,347.3 L 350.6,352.6 L 350.5,359.4 L 343.8,360.7 L 337.7,358.0 L 339.9,347.3 Z"/>
    <path d="M 351.7,357.6 L 350.6,352.6 L 339.9,347.3 L 351.0,335.5 L 348.3,334.4 L 349.2,329.4 L 346.1,329.2 L 345.0,324.6 L 339.1,323.8 L 340.3,312.5 L 338.2,307.1 L 332.9,307.0 L 331.9,299.8 L 318.3,293.4 L 318.5,288.2 L 304.0,291.8 L 304.2,287.4 L 299.5,289.0 L 294.5,281.7 L 297.5,275.2 L 305.9,272.4 L 305.5,258.4 L 307.7,257.2 L 306.1,255.0 L 312.4,254.1 L 317.9,257.7 L 324.0,253.6 L 320.0,248.3 L 324.7,249.1 L 331.3,245.0 L 333.4,245.5 L 336.0,256.2 L 344.5,254.7 L 344.5,252.7 L 352.9,253.9 L 357.5,247.9 L 361.2,255.0 L 360.0,260.2 L 364.9,260.7 L 365.0,263.6 L 367.2,261.7 L 375.3,264.5 L 376.2,267.8 L 388.9,268.3 L 401.1,274.9 L 403.5,281.2 L 402.4,286.0 L 392.6,297.7 L 390.9,311.6 L 386.3,323.4 L 367.6,331.9 L 364.2,342.8 L 351.7,357.6 Z"/>
    <path d="M 306.9,291.6 L 318.5,288.2 L 318.3,293.4 L 331.9,299.8 L 332.9,307.0 L 338.2,307.1 L 339.3,317.7 L 328.4,316.7 L 325.9,324.3 L 322.3,323.5 L 321.2,325.9 L 315.9,323.1 L 311.6,326.1 L 306.7,310.8 L 309.3,296.3 L 306.9,291.6 Z"/>
    <path d="M 305.9,272.4 L 297.5,275.2 L 294.5,281.7 L 299.5,289.0 L 304.2,287.4 L 304.0,291.8 L 306.9,291.6 L 309.3,296.3 L 308.4,307.7 L 304.5,313.0 L 288.9,302.3 L 273.9,273.7 L 276.9,269.8 L 276.5,272.8 L 281.6,273.1 L 291.4,260.2 L 297.0,266.7 L 305.4,267.9 L 303.6,270.8 L 305.9,272.4 Z"/>
    <path d="M 314.2,256.4 L 312.4,254.1 L 306.1,255.0 L 307.7,257.2 L 305.5,258.4 L 305.9,272.4 L 303.6,270.8 L 305.4,267.9 L 297.0,266.7 L 291.4,260.2 L 284.9,258.9 L 280.6,255.1 L 285.8,248.9 L 284.8,235.4 L 289.8,232.7 L 291.9,228.0 L 301.7,224.2 L 296.4,233.6 L 300.1,239.8 L 312.9,242.4 L 311.6,251.9 L 314.2,256.4 Z"/>
    <path d="M 285.1,235.0 L 283.7,239.1 L 280.2,234.0 L 275.3,239.1 L 269.9,236.7 L 269.6,232.6 L 273.8,234.6 L 280.5,232.4 L 285.1,235.0 Z"/>
    <path d="M 270.7,232.4 L 269.5,236.2 L 261.3,228.5 L 267.6,228.4 L 270.7,232.4 Z"/>
    <path d="M 267.6,228.4 L 261.9,228.0 L 256.5,222.7 L 269.0,216.7 L 267.6,228.4 Z"/>
    <path d="M 269.0,216.7 L 257.5,222.5 L 251.8,218.3 L 255.8,214.2 L 263.9,213.8 L 269.0,216.7 Z"/>
    <path d="M 251.8,218.3 L 256.3,220.2 L 255.8,222.0 L 249.7,220.3 L 251.8,218.3 Z"/>
    <path d="M 243.8,218.0 L 245.1,213.6 L 248.7,213.6 L 247.2,208.5 L 252.4,208.6 L 252.1,214.1 L 254.9,214.6 L 251.8,218.3 L 249.7,220.3 L 243.8,218.0 Z"/>
    <path d="M 252.4,208.6 L 255.3,207.0 L 253.0,214.1 L 252.1,214.1 L 252.4,208.6 Z"/>
    <path d="M 331.3,245.0 L 324.7,249.1 L 320.0,248.3 L 324.0,253.6 L 315.8,257.9 L 311.6,251.9 L 312.9,242.4 L 300.1,239.8 L 296.4,233.6 L 297.5,229.8 L 300.1,226.5 L 301.9,226.0 L 299.8,231.5 L 302.0,233.6 L 301.7,228.3 L 305.7,224.9 L 310.6,229.5 L 328.1,229.0 L 325.7,229.9 L 334.0,235.8 L 329.4,242.8 L 331.3,245.0 Z"/>
    <path d="M 342.9,254.5 L 334.3,254.8 L 333.4,245.5 L 329.4,242.8 L 334.0,235.8 L 341.3,242.7 L 338.8,248.3 L 342.9,254.5 Z"/>
    <path d="M 348.5,253.3 L 342.9,254.5 L 340.0,250.4 L 341.3,242.7 L 350.1,243.4 L 348.5,253.3 Z"/>
    <path d="M 356.5,248.0 L 352.9,253.9 L 348.5,253.3 L 350.1,243.4 L 356.5,248.0 Z"/>
    <path d="M 507.0,112.2 L 522.5,118.4 L 516.8,125.0 L 520.7,133.8 L 505.1,137.7 L 494.7,134.6 L 496.7,127.1 L 487.2,119.4 L 495.5,119.5 L 494.6,116.2 L 497.3,117.4 L 507.0,112.2 Z"/>
    <path d="M 524.4,139.9 L 526.1,135.7 L 525.6,140.5 L 524.4,139.9 Z"/>
    <path d="M 290.6,260.4 L 290.2,264.5 L 281.6,273.1 L 276.5,272.8 L 278.4,267.7 L 275.1,266.5 L 275.2,263.1 L 277.5,257.8 L 281.0,256.0 L 290.6,260.4 Z"/>
    <path d="M 313.6,206.5 L 317.8,207.3 L 313.4,208.2 L 313.6,206.5 Z"/>
    <path d="M 282.4,207.3 L 286.4,206.8 L 288.3,208.3 L 282.4,207.3 Z"/>
    <path d="M 271.5,193.0 L 282.4,195.0 L 293.9,201.4 L 284.0,202.6 L 285.9,201.0 L 281.3,197.6 L 272.8,194.6 L 264.0,196.7 L 271.5,193.0 Z"/>
    <path d="M 586.6,324.3 L 577.8,322.1 L 570.2,311.2 L 575.1,311.8 L 584.1,304.8 L 591.2,308.3 L 590.7,318.7 L 586.6,324.3 Z"/>
    <path d="M 581.8,323.8 L 571.3,333.6 L 564.8,333.0 L 560.0,337.2 L 558.0,337.5 L 555.3,331.6 L 558.1,312.7 L 570.2,311.2 L 577.8,322.1 L 581.8,323.8 Z"/>
    <path d="M 558.1,312.7 L 555.3,342.2 L 545.4,342.6 L 532.6,310.0 L 569.7,310.8 L 558.1,312.7 Z"/>
    <path d="M 453.6,220.7 L 451.0,217.4 L 455.2,212.5 L 459.5,212.0 L 466.2,217.8 L 468.0,224.1 L 453.7,224.2 L 453.2,222.0 L 461.5,221.0 L 453.6,220.7 Z"/>
    <path d="M 468.0,224.1 L 467.6,215.5 L 484.6,215.2 L 482.1,187.9 L 486.3,187.9 L 508.8,204.9 L 511.9,204.7 L 510.1,215.0 L 497.0,216.7 L 488.9,221.1 L 485.0,230.0 L 477.7,230.5 L 474.6,224.4 L 468.0,224.1 Z"/>
    <path d="M 452.6,199.3 L 464.1,198.4 L 466.8,185.1 L 475.9,185.2 L 475.9,180.9 L 486.3,187.9 L 482.1,187.9 L 484.6,215.2 L 467.6,215.5 L 466.2,217.8 L 459.5,212.0 L 454.3,213.4 L 454.8,202.0 L 452.6,199.3 Z"/>
    <path d="M 507.5,241.9 L 505.2,242.3 L 502.1,229.8 L 507.9,224.7 L 510.5,229.0 L 507.5,241.9 Z"/>
    <path d="M 541.3,194.0 L 544.2,201.1 L 542.4,212.0 L 537.6,218.5 L 540.5,221.5 L 539.4,223.9 L 536.3,220.7 L 525.0,222.9 L 515.1,219.9 L 511.4,220.9 L 510.0,226.3 L 502.8,222.9 L 501.0,216.9 L 510.1,215.0 L 511.9,204.7 L 533.3,192.2 L 541.3,194.0 Z"/>
    <path d="M 507.5,241.9 L 512.1,220.3 L 525.0,222.9 L 536.3,220.7 L 540.5,225.1 L 532.6,239.8 L 525.6,241.4 L 523.6,246.2 L 516.4,247.7 L 512.0,241.9 L 507.5,241.9 Z"/>
    <path d="M 540.3,222.9 L 543.0,231.2 L 538.8,232.4 L 542.9,237.8 L 540.2,246.3 L 544.3,255.0 L 526.8,253.4 L 524.3,244.2 L 528.1,239.7 L 532.6,239.8 L 540.3,222.9 Z"/>
    <path d="M 502.5,228.2 L 505.2,242.3 L 502.9,242.9 L 499.9,229.1 L 502.5,228.2 Z"/>
    <path d="M 500.1,228.2 L 502.9,242.9 L 492.1,245.6 L 491.8,228.3 L 500.1,228.2 Z"/>
    <path d="M 477.7,230.5 L 492.1,232.1 L 492.1,245.6 L 478.6,247.4 L 479.0,243.5 L 476.1,241.3 L 477.7,230.5 Z"/>
    <path d="M 461.9,223.6 L 474.6,224.4 L 477.7,230.5 L 477.0,237.8 L 474.4,238.9 L 472.9,235.3 L 470.8,235.9 L 469.1,231.0 L 463.2,234.3 L 458.0,228.1 L 461.9,223.6 Z"/>
    <path d="M 453.7,224.2 L 461.9,223.6 L 461.8,225.9 L 458.0,228.1 L 453.7,224.2 Z"/>
    <path d="M 476.6,237.8 L 476.1,241.3 L 479.0,243.5 L 478.6,247.4 L 468.2,240.4 L 471.6,235.7 L 474.4,238.9 L 476.6,237.8 Z"/>
    <path d="M 463.2,234.3 L 469.1,231.0 L 471.6,235.7 L 468.2,240.4 L 463.2,234.3 Z"/>
    <path d="M 485.0,230.0 L 488.1,221.8 L 497.0,216.7 L 501.0,216.9 L 502.8,222.9 L 506.0,223.5 L 502.5,228.2 L 491.8,228.3 L 492.1,232.1 L 485.0,230.0 Z"/>
    <path d="M 576.0,244.9 L 562.2,248.4 L 554.1,245.5 L 544.5,253.4 L 540.2,244.3 L 542.4,238.6 L 549.9,237.2 L 563.5,227.8 L 565.2,234.1 L 576.0,244.9 Z"/>
    <path d="M 551.3,249.9 L 544.5,270.2 L 540.5,274.4 L 533.1,274.6 L 530.8,271.5 L 531.9,268.0 L 534.9,265.6 L 538.9,267.1 L 540.1,263.9 L 539.7,256.5 L 536.3,253.5 L 544.3,255.0 L 547.6,249.2 L 551.3,249.9 Z"/>
    <path d="M 531.3,253.5 L 536.0,253.3 L 539.7,256.5 L 540.1,263.9 L 538.9,267.1 L 534.9,265.6 L 531.9,268.0 L 530.8,271.5 L 524.4,263.2 L 526.4,257.1 L 531.3,256.9 L 531.3,253.5 Z"/>
    <path d="M 526.8,253.4 L 531.3,253.5 L 531.3,256.9 L 526.4,257.1 L 526.8,253.4 Z"/>
    <path d="M 585.4,284.1 L 592.3,288.0 L 592.3,300.4 L 583.8,302.7 L 575.1,311.8 L 564.5,310.6 L 560.8,306.5 L 560.9,297.3 L 566.7,297.3 L 566.4,291.6 L 582.5,298.3 L 582.3,295.2 L 578.8,294.1 L 579.0,286.5 L 585.4,284.1 Z"/>
    <path d="M 591.0,286.7 L 595.2,289.4 L 596.0,299.2 L 599.1,302.2 L 597.3,308.5 L 595.7,302.2 L 590.8,299.6 L 593.0,290.4 L 591.0,286.7 Z"/>
    <path d="M 596.0,293.3 L 604.1,293.4 L 612.0,289.8 L 613.3,302.4 L 609.6,308.3 L 596.6,317.2 L 598.5,329.7 L 589.1,337.2 L 586.6,324.3 L 590.7,318.7 L 591.2,308.3 L 584.3,305.9 L 583.8,302.7 L 592.3,300.4 L 595.7,302.2 L 597.3,308.5 L 599.1,302.2 L 596.0,299.2 L 596.0,293.3 Z"/>
    <path d="M 589.1,337.2 L 585.2,337.3 L 586.2,334.3 L 588.4,334.7 L 589.1,337.2 Z"/>
    <path d="M 533.1,274.6 L 535.1,274.4 L 533.8,276.7 L 533.1,274.6 Z"/>
    <path d="M 534.2,277.6 L 545.4,277.0 L 548.5,283.3 L 555.8,280.1 L 560.4,281.1 L 561.5,292.0 L 566.7,292.5 L 566.7,297.3 L 560.9,297.3 L 560.8,306.5 L 564.5,310.6 L 532.6,310.0 L 538.2,292.6 L 534.2,277.6 Z"/>
    <path d="M 584.6,267.0 L 585.4,269.7 L 581.5,273.0 L 580.6,268.2 L 584.6,267.0 Z"/>
    <path d="M 599.2,165.5 L 597.2,167.9 L 597.0,174.8 L 595.2,169.8 L 597.5,164.4 L 599.2,165.5 Z"/>
    <path d="M 601.7,161.2 L 597.6,164.4 L 601.2,160.1 L 601.7,161.2 Z"/>
    <path d="M 637.6,296.0 L 639.9,305.4 L 638.0,305.4 L 630.8,332.1 L 626.1,334.0 L 622.3,332.2 L 620.4,325.8 L 623.5,316.1 L 622.1,310.3 L 637.6,296.0 Z"/>
    <path d="M 598.7,166.4 L 597.0,169.4 L 597.7,166.0 L 598.7,166.4 Z"/>
    <path d="M 453.2,222.0 L 458.1,219.9 L 461.5,221.0 L 453.2,222.0 Z"/>
    <path d="M 526.3,172.4 L 520.9,161.5 L 523.4,153.3 L 526.4,152.1 L 530.6,152.8 L 528.2,160.8 L 531.9,164.3 L 526.3,172.4 Z"/>
    <path d="M 475.9,180.9 L 475.9,176.7 L 496.4,166.8 L 494.0,158.4 L 496.6,156.8 L 523.4,153.3 L 520.9,161.5 L 527.2,175.0 L 525.9,184.6 L 533.3,192.2 L 515.8,203.4 L 508.8,204.9 L 475.9,180.9 Z"/>
    <path d="M 598.7,166.4 L 607.8,163.6 L 608.9,167.1 L 602.8,169.0 L 605.6,171.9 L 600.2,175.7 L 597.0,174.8 L 598.7,166.4 Z"/>
    <path d="M 643.3,190.0 L 650.0,190.3 L 656.3,185.7 L 652.8,195.0 L 644.4,193.6 L 643.3,190.0 Z"/>
    <path d="M 641.1,188.5 L 641.0,186.4 L 642.5,184.6 L 643.4,187.2 L 641.1,188.5 Z"/>
    <path d="M 631.4,173.2 L 634.5,177.5 L 629.4,175.9 L 631.4,173.2 Z"/>
    <path d="M 608.9,167.1 L 607.8,163.6 L 613.9,160.6 L 614.7,155.0 L 618.8,152.0 L 624.4,152.6 L 628.0,156.9 L 626.2,161.9 L 634.9,173.5 L 624.2,175.7 L 608.9,167.1 Z"/>
    <path d="M 652.8,202.2 L 656.7,188.0 L 666.1,195.5 L 660.3,205.3 L 647.5,211.9 L 644.4,205.1 L 652.8,202.2 Z"/>
    <path d="M 656.9,184.0 L 655.8,184.7 L 656.6,183.7 L 656.9,184.0 Z"/>
    <path d="M 964.5,305.9 L 966.2,307.6 L 965.3,307.9 L 964.5,305.9 Z"/>
    <path d="M 964.6,305.5 L 962.9,304.5 L 962.9,302.3 L 964.6,305.5 Z"/>
    <path d="M 785.0,224.8 L 786.1,218.9 L 794.6,219.9 L 795.8,217.9 L 798.9,220.9 L 798.6,224.4 L 793.9,226.6 L 795.1,228.3 L 787.5,229.3 L 785.0,224.8 Z"/>
    <path d="M 792.3,218.8 L 786.1,218.9 L 785.0,224.8 L 778.0,221.3 L 775.6,233.3 L 783.7,242.0 L 781.0,243.6 L 772.6,235.9 L 776.6,225.6 L 772.8,216.3 L 774.7,213.3 L 770.5,206.7 L 778.1,201.0 L 781.3,203.8 L 780.7,209.4 L 786.7,207.1 L 790.9,209.6 L 792.3,218.8 Z"/>
    <path d="M 798.3,219.0 L 792.3,218.8 L 793.3,215.0 L 788.8,207.3 L 780.7,209.4 L 781.3,203.8 L 778.1,201.0 L 782.8,198.8 L 782.4,195.5 L 790.1,200.0 L 791.2,202.5 L 788.6,204.3 L 798.1,214.0 L 798.3,219.0 Z"/>
    <path d="M 781.0,196.9 L 770.5,206.7 L 774.7,213.3 L 772.8,216.3 L 776.6,225.6 L 773.8,231.3 L 769.9,211.1 L 764.9,214.6 L 761.6,213.7 L 762.0,207.4 L 756.4,198.0 L 764.2,183.2 L 769.8,181.8 L 770.4,178.4 L 774.1,180.5 L 771.1,191.0 L 774.1,190.5 L 775.7,196.1 L 781.0,196.9 Z"/>
    <path d="M 789.8,229.7 L 798.6,224.4 L 798.8,216.1 L 788.6,204.3 L 791.2,202.5 L 790.1,200.0 L 786.7,200.0 L 783.8,195.1 L 792.6,192.5 L 800.1,197.7 L 793.5,204.9 L 802.4,215.9 L 803.3,226.3 L 792.1,235.2 L 789.8,229.7 Z"/>
    <path d="M 863.3,138.0 L 863.3,138.0 L 863.3,138.0 L 863.3,138.0 Z"/>
    <path d="M 862.9,137.5 L 854.3,145.1 L 856.1,149.2 L 846.4,149.9 L 848.3,146.2 L 845.2,144.7 L 847.4,142.8 L 861.1,135.8 L 862.9,137.5 Z"/>
    <path d="M 850.5,150.9 L 856.5,148.5 L 859.6,153.7 L 858.6,158.7 L 851.3,160.7 L 850.3,153.9 L 852.4,153.4 L 850.5,150.9 Z"/>
    <path d="M 743.8,117.6 L 756.2,113.2 L 770.2,116.3 L 774.6,109.6 L 801.3,117.6 L 824.1,115.9 L 821.5,122.1 L 828.0,121.1 L 832.7,124.1 L 815.2,130.6 L 810.8,129.7 L 810.6,133.6 L 806.7,136.1 L 791.6,139.8 L 767.6,136.6 L 764.7,132.2 L 752.6,129.2 L 752.7,124.5 L 743.8,117.6 Z"/>
    <path d="M 770.4,178.4 L 769.8,181.8 L 764.2,183.2 L 757.4,196.3 L 756.0,191.7 L 753.2,192.1 L 756.6,187.8 L 749.8,187.0 L 746.0,183.6 L 747.0,187.1 L 744.7,189.2 L 746.9,197.3 L 741.6,197.9 L 740.3,201.8 L 723.1,214.1 L 721.8,230.1 L 715.4,237.0 L 704.3,213.8 L 701.8,198.3 L 695.8,199.7 L 689.4,191.6 L 697.3,189.6 L 693.1,182.2 L 699.4,179.4 L 709.1,166.8 L 704.9,160.9 L 716.2,157.5 L 719.2,160.8 L 718.7,169.0 L 725.3,172.8 L 722.5,176.8 L 731.4,180.9 L 744.6,183.7 L 746.5,178.9 L 749.3,182.8 L 755.6,182.5 L 754.7,179.8 L 767.0,174.9 L 767.4,177.9 L 770.4,178.4 Z"/>
    <path d="M 756.0,191.7 L 756.6,200.3 L 753.9,194.2 L 747.3,196.3 L 744.7,189.2 L 747.0,187.1 L 746.0,183.6 L 749.8,187.0 L 756.6,187.8 L 753.2,192.1 L 756.0,191.7 Z"/>
    <path d="M 750.0,178.3 L 755.6,182.5 L 746.8,181.7 L 750.0,178.3 Z"/>
    <path d="M 744.8,179.5 L 744.6,183.7 L 742.3,183.7 L 722.5,176.8 L 726.5,172.1 L 744.8,179.5 Z"/>
    <path d="M 716.2,157.5 L 704.9,160.9 L 709.1,166.8 L 699.4,179.4 L 693.1,182.2 L 697.3,189.6 L 689.4,191.6 L 684.4,186.5 L 670.8,187.6 L 675.9,182.7 L 669.1,173.8 L 684.3,173.7 L 685.9,169.6 L 692.5,167.8 L 699.6,154.5 L 708.8,152.7 L 716.2,157.5 Z"/>
    <path d="M 679.9,152.8 L 692.2,152.7 L 696.7,148.8 L 699.6,153.9 L 708.8,152.7 L 698.0,155.8 L 698.9,158.4 L 694.3,161.7 L 692.5,167.8 L 685.9,169.6 L 684.3,173.7 L 669.1,173.8 L 671.6,171.2 L 668.2,164.7 L 670.0,157.0 L 675.0,157.7 L 679.9,152.8 Z"/>
    <path d="M 688.4,152.7 L 690.0,149.8 L 688.1,145.7 L 696.3,141.7 L 697.3,143.7 L 693.0,145.8 L 704.7,146.1 L 708.3,151.9 L 699.6,153.9 L 696.7,148.8 L 688.4,152.7 Z"/>
    <path d="M 695.6,140.1 L 706.1,134.9 L 722.9,137.7 L 704.7,146.1 L 693.0,145.8 L 702.9,141.9 L 695.6,140.1 Z"/>
    <path d="M 645.8,139.3 L 650.2,137.7 L 658.6,140.6 L 662.9,136.5 L 684.8,152.1 L 682.6,151.2 L 672.9,158.1 L 659.3,150.1 L 649.8,152.5 L 649.7,147.5 L 646.4,144.3 L 647.0,141.9 L 652.0,141.7 L 649.2,138.3 L 646.7,141.2 L 645.8,139.3 Z"/>
    <path d="M 634.9,173.5 L 626.2,161.9 L 628.0,156.9 L 622.5,146.1 L 628.2,148.1 L 633.5,145.7 L 636.7,151.4 L 641.2,153.5 L 657.3,149.9 L 669.8,154.6 L 668.2,164.7 L 671.6,171.2 L 669.1,173.8 L 675.9,182.7 L 670.8,187.6 L 659.4,185.6 L 658.3,182.1 L 648.6,182.5 L 643.1,179.5 L 639.2,172.9 L 634.9,173.5 Z"/>
    <path d="M 599.2,165.5 L 602.1,153.6 L 617.6,152.4 L 613.9,160.6 L 602.3,166.7 L 599.2,165.5 Z"/>
    <path d="M 629.2,148.0 L 621.3,143.7 L 621.1,141.3 L 626.6,142.1 L 629.2,148.0 Z"/>
    <path d="M 530.6,90.0 L 535.1,82.9 L 533.1,77.6 L 546.6,63.5 L 557.3,60.4 L 565.4,63.7 L 566.4,69.3 L 549.6,78.7 L 547.6,82.8 L 552.2,86.4 L 546.7,90.4 L 544.1,97.9 L 536.0,100.1 L 530.6,90.0 Z"/>
    <path d="M 578.3,97.7 L 585.8,99.5 L 590.8,105.9 L 587.0,106.7 L 588.3,109.5 L 584.9,111.7 L 565.4,111.0 L 565.2,104.3 L 578.3,97.7 Z"/>
    <path d="M 584.9,111.7 L 593.8,108.8 L 598.2,113.9 L 611.3,116.7 L 610.4,121.6 L 597.3,127.9 L 588.0,125.1 L 579.7,129.1 L 580.2,125.8 L 583.4,125.9 L 579.6,121.0 L 561.3,120.1 L 566.5,114.3 L 565.4,111.0 L 584.9,111.7 Z"/>
    <path d="M 565.2,104.3 L 566.7,113.5 L 563.3,118.4 L 544.9,114.3 L 539.1,106.9 L 539.2,104.7 L 549.0,101.5 L 565.2,104.3 Z"/>
    <path d="M 547.2,121.0 L 544.5,125.1 L 540.6,125.9 L 526.3,123.9 L 535.9,122.9 L 537.8,118.8 L 547.2,121.0 Z"/>
    <path d="M 547.2,121.0 L 563.1,121.7 L 558.4,126.2 L 551.3,127.8 L 545.0,124.6 L 547.2,121.0 Z"/>
    <path d="M 573.9,120.7 L 579.6,121.0 L 583.4,125.9 L 578.4,128.6 L 573.9,120.7 Z"/>
    <path d="M 578.4,128.6 L 582.2,129.2 L 579.3,133.7 L 563.7,133.4 L 556.2,126.7 L 564.3,121.1 L 573.9,120.7 L 578.4,128.6 Z"/>
    <path d="M 573.6,99.3 L 570.9,103.2 L 565.2,104.3 L 558.5,98.1 L 569.1,97.1 L 573.6,99.3 Z"/>
    <path d="M 575.8,94.0 L 578.3,97.7 L 573.6,99.3 L 569.1,97.1 L 558.5,98.1 L 562.6,93.2 L 564.8,95.3 L 569.9,92.5 L 575.8,94.0 Z"/>
    <path d="M 577.7,88.2 L 575.8,94.0 L 567.5,93.0 L 564.8,89.0 L 577.7,88.2 Z"/>
    <path d="M 539.2,104.7 L 541.7,112.4 L 534.0,114.8 L 537.8,118.8 L 535.9,122.9 L 520.7,122.4 L 522.5,118.4 L 516.8,115.2 L 519.7,104.9 L 527.6,101.2 L 530.4,104.0 L 539.2,104.7 Z"/>
    <path d="M 563.8,140.6 L 563.7,133.4 L 579.3,133.7 L 577.8,138.6 L 563.8,140.6 Z"/>
    <path d="M 573.0,158.0 L 568.7,159.1 L 565.3,158.1 L 565.8,156.9 L 573.0,158.0 Z"/>
    <path d="M 563.8,140.6 L 573.9,139.9 L 565.9,142.5 L 567.8,144.1 L 562.9,143.7 L 566.8,151.2 L 564.2,150.5 L 564.3,154.8 L 562.5,154.8 L 556.0,145.5 L 563.8,140.6 Z"/>
    <path d="M 624.4,152.6 L 602.1,153.6 L 600.4,156.5 L 600.4,154.1 L 596.4,153.7 L 582.5,155.6 L 576.8,154.1 L 572.7,146.0 L 581.2,140.9 L 593.1,138.6 L 606.5,141.7 L 618.4,139.9 L 624.4,145.3 L 622.5,146.1 L 624.4,152.6 Z"/>
    <path d="M 572.5,139.2 L 577.8,138.6 L 580.5,140.7 L 573.2,144.0 L 572.5,139.2 Z"/>
    <path d="M 558.4,142.0 L 556.0,145.5 L 553.9,143.7 L 554.8,136.7 L 558.4,142.0 Z"/>
    <path d="M 546.0,125.7 L 553.9,129.3 L 543.8,130.5 L 551.3,137.3 L 537.9,129.6 L 546.0,125.7 Z"/>
    <path d="M 526.7,122.7 L 528.8,125.7 L 516.7,126.3 L 518.7,122.7 L 526.7,122.7 Z"/>
    <path d="M 516.1,115.3 L 517.2,117.1 L 515.8,116.9 L 516.1,115.3 Z"/>
    <path d="M 517.1,113.2 L 515.8,116.9 L 507.0,112.2 L 513.8,111.3 L 517.1,113.2 Z"/>
    <path d="M 519.2,105.5 L 517.1,113.2 L 509.2,111.7 L 513.1,106.6 L 519.2,105.5 Z"/>
    <path d="M 474.9,139.0 L 482.3,140.5 L 478.2,153.6 L 475.3,153.5 L 473.5,148.1 L 474.9,139.0 Z"/>
    <path d="M 479.3,152.8 L 479.2,145.5 L 482.3,140.5 L 474.9,139.0 L 473.9,135.7 L 477.8,133.6 L 508.3,137.3 L 502.3,141.5 L 500.3,148.1 L 494.0,154.1 L 485.1,156.2 L 479.3,152.8 Z"/>
    <path d="M 482.8,104.4 L 481.1,109.0 L 472.3,110.3 L 474.5,107.3 L 473.1,104.3 L 479.0,100.7 L 479.0,103.8 L 482.8,104.4 Z"/>
    <path d="M 956.8,318.1 L 964.2,324.0 L 955.6,318.1 L 956.8,318.1 Z"/>
    <path d="M 949.8,290.2 L 949.2,291.3 L 948.1,289.5 L 949.8,290.2 Z"/>
    <path d="M 947.0,284.0 L 948.7,288.3 L 946.1,284.0 L 947.0,284.0 Z"/>
    <path d="M 946.8,288.5 L 944.0,288.3 L 943.6,286.7 L 945.5,287.2 L 946.8,288.5 Z"/>
    <path d="M 939.9,281.1 L 944.2,284.7 L 939.5,281.4 L 939.9,281.1 Z"/>
    <path d="M 936.5,280.3 L 937.6,281.2 L 934.8,279.1 L 936.5,280.3 Z"/>
    <path d="M 995.9,368.9 L 988.9,379.3 L 985.1,379.3 L 986.7,376.9 L 982.8,374.1 L 985.3,368.0 L 979.5,359.8 L 988.8,368.5 L 995.9,368.9 Z"/>
    <path d="M 963.0,393.5 L 980.0,377.0 L 984.0,379.5 L 980.8,386.7 L 976.3,387.8 L 973.9,392.6 L 970.4,394.7 L 963.0,393.5 Z"/>
    <path d="M 910.2,377.9 L 910.9,384.8 L 905.7,385.8 L 902.1,377.6 L 910.2,377.9 Z"/>
    <path d="M 850.4,353.1 L 843.5,357.9 L 833.0,358.2 L 827.8,361.3 L 819.5,358.8 L 821.7,353.0 L 814.8,335.4 L 817.3,336.0 L 815.9,324.9 L 835.7,316.9 L 849.1,301.1 L 853.0,299.9 L 860.1,303.2 L 862.8,296.2 L 868.3,295.0 L 867.7,292.1 L 879.1,294.3 L 876.4,303.3 L 889.5,311.2 L 895.9,290.8 L 899.8,302.0 L 903.8,303.3 L 906.6,314.8 L 913.5,318.9 L 915.8,324.5 L 918.7,324.7 L 924.6,333.0 L 926.6,341.2 L 924.7,351.4 L 916.7,368.1 L 906.4,372.8 L 902.9,369.5 L 898.9,372.1 L 890.7,369.8 L 887.7,364.4 L 883.7,362.9 L 883.9,359.3 L 880.1,361.9 L 882.8,355.0 L 877.7,360.8 L 873.0,354.2 L 864.8,351.0 L 850.4,353.1 Z"/>
    <path d="M 727.2,238.3 L 723.2,242.8 L 722.6,231.6 L 724.6,233.2 L 727.2,238.3 Z"/>
    <path d="M 804.1,207.4 L 801.7,204.0 L 807.7,202.0 L 806.5,206.0 L 804.1,207.4 Z"/>
    <path d="M 704.7,146.1 L 724.6,135.3 L 722.1,130.2 L 729.1,128.4 L 731.1,123.3 L 736.6,124.2 L 738.2,120.0 L 743.8,117.6 L 752.7,124.5 L 752.6,129.2 L 764.7,132.2 L 767.6,136.6 L 791.6,139.8 L 803.5,137.2 L 810.6,133.6 L 810.8,129.7 L 815.2,130.6 L 826.2,125.2 L 832.4,125.1 L 828.0,121.1 L 820.8,120.9 L 824.1,115.9 L 831.4,115.1 L 835.4,109.9 L 833.8,107.6 L 839.6,105.6 L 849.9,107.5 L 854.6,116.2 L 859.4,117.2 L 863.9,121.9 L 875.1,120.0 L 869.7,129.6 L 864.0,130.1 L 862.9,137.5 L 861.1,135.8 L 856.1,140.2 L 852.4,139.2 L 836.3,147.6 L 839.4,143.2 L 837.9,141.7 L 826.5,148.1 L 832.5,152.7 L 839.9,151.8 L 831.0,159.1 L 838.6,168.4 L 838.0,178.5 L 829.6,189.1 L 821.9,194.2 L 807.7,198.2 L 806.8,201.2 L 805.2,198.2 L 797.3,197.0 L 792.6,192.5 L 782.4,195.5 L 782.8,198.8 L 775.7,196.1 L 774.1,190.5 L 771.1,191.0 L 774.1,180.5 L 767.4,177.9 L 767.0,174.9 L 757.0,179.4 L 750.0,178.3 L 746.7,181.1 L 746.5,178.9 L 738.4,178.5 L 718.7,169.0 L 719.2,160.8 L 711.6,156.3 L 704.7,146.1 Z"/>
    <path d="M 837.5,186.9 L 836.6,194.2 L 835.4,196.5 L 833.6,191.9 L 837.5,186.9 Z"/>
    <path d="M 529.0,124.5 L 538.4,125.6 L 538.7,128.3 L 534.2,128.9 L 535.0,132.6 L 551.0,143.4 L 550.8,145.0 L 546.9,143.2 L 547.4,147.6 L 543.6,150.5 L 542.8,144.3 L 531.1,137.6 L 528.3,133.1 L 520.7,133.8 L 519.0,127.1 L 529.0,124.5 Z"/>
    <path d="M 534.5,151.3 L 543.1,149.6 L 541.9,154.2 L 534.5,151.3 Z"/>
    <path d="M 522.7,141.7 L 527.2,143.0 L 524.5,147.6 L 522.7,141.7 Z"/>
    <path d="M 527.6,101.2 L 523.7,101.2 L 522.5,96.7 L 529.4,93.2 L 530.3,96.9 L 527.6,101.2 Z"/>
    <path d="M 534.4,97.9 L 533.6,101.7 L 530.7,100.1 L 530.3,98.9 L 534.4,97.9 Z"/>
    <path d="M 484.3,102.4 L 479.0,103.8 L 479.0,100.7 L 484.3,102.4 Z"/>
    <path d="M 491.4,105.7 L 482.9,96.0 L 486.1,90.6 L 491.7,90.6 L 488.7,93.7 L 494.6,93.4 L 491.3,98.3 L 504.7,107.6 L 504.0,111.8 L 484.0,115.1 L 490.5,111.4 L 485.4,109.8 L 488.3,108.9 L 487.3,105.5 L 491.4,105.7 Z"/>
    <path d="M 459.7,68.0 L 462.2,71.9 L 448.2,76.6 L 436.8,75.2 L 439.5,73.9 L 433.5,72.5 L 438.3,71.1 L 432.4,70.5 L 438.5,68.1 L 442.8,70.1 L 459.7,68.0 Z"/>
    <path d="M 628.9,139.1 L 632.8,141.1 L 635.0,139.2 L 640.0,143.7 L 637.7,143.9 L 635.8,149.3 L 633.5,145.7 L 629.2,148.0 L 626.7,144.7 L 624.9,140.8 L 629.2,141.4 L 628.9,139.1 Z"/>
    <path d="M 628.2,148.1 L 626.3,147.7 L 624.4,145.3 L 627.1,146.0 L 628.2,148.1 Z"/>
    <path d="M 611.0,134.5 L 626.3,137.2 L 629.5,141.0 L 615.4,140.0 L 615.1,136.8 L 611.0,134.5 Z"/>
    <path d="M 836.8,224.7 L 834.2,221.1 L 837.6,222.2 L 836.8,224.7 Z"/>
    <path d="M 841.7,233.9 L 841.5,228.6 L 842.6,230.3 L 844.7,227.5 L 841.7,233.9 Z"/>
    <path d="M 851.0,235.7 L 848.3,243.9 L 843.4,237.4 L 838.7,239.2 L 843.0,234.9 L 848.5,234.0 L 848.4,231.8 L 851.0,235.7 Z"/>
    <path d="M 832.5,229.5 L 825.5,235.8 L 832.0,227.2 L 832.5,229.5 Z"/>
    <path d="M 839.8,207.4 L 838.1,218.6 L 844.3,220.2 L 844.7,223.8 L 835.1,220.0 L 836.1,218.0 L 833.1,215.5 L 835.3,206.5 L 839.8,207.4 Z"/>
    <path d="M 838.9,229.8 L 838.6,225.6 L 842.0,226.5 L 838.9,229.8 Z"/>
    <path d="M 845.2,223.7 L 849.4,228.1 L 847.3,227.3 L 846.7,230.7 L 845.2,223.7 Z"/>
    <path d="M 778.0,241.3 L 786.0,244.0 L 789.5,256.3 L 781.6,252.0 L 778.0,241.3 Z"/>
    <path d="M 827.5,248.0 L 821.8,247.6 L 818.4,255.9 L 805.1,256.1 L 804.6,254.2 L 808.8,254.7 L 817.2,246.9 L 820.4,247.5 L 824.2,240.0 L 831.1,244.4 L 827.5,248.0 Z"/>
    <path d="M 820.7,244.3 L 820.4,247.5 L 818.5,248.4 L 817.2,246.9 L 820.7,244.3 Z"/>
    <path d="M 538.4,125.6 L 545.0,124.6 L 546.0,125.7 L 542.6,128.7 L 538.1,128.6 L 538.4,125.6 Z"/>
    <path d="M 580.6,58.5 L 579.0,62.5 L 583.3,64.4 L 580.7,66.6 L 586.5,79.9 L 578.0,85.2 L 563.5,87.1 L 559.2,84.6 L 559.8,77.5 L 570.6,71.9 L 565.5,68.2 L 565.4,63.7 L 557.3,60.4 L 568.7,61.7 L 577.0,57.3 L 580.6,58.5 Z"/>
    <path d="M 562.7,118.2 L 549.6,122.0 L 546.9,120.0 L 551.5,117.0 L 562.7,118.2 Z"/>
    <path d="M 541.7,112.4 L 548.8,114.5 L 552.4,117.0 L 539.8,119.7 L 534.8,116.9 L 534.0,114.8 L 541.7,112.4 Z"/>
    <path d="M 601.2,218.3 L 602.4,211.0 L 606.7,208.0 L 609.1,214.0 L 619.7,223.3 L 611.2,218.1 L 601.2,218.3 Z"/>
    <path d="M 894.1,146.8 L 889.6,158.5 L 877.2,163.3 L 875.2,160.1 L 863.9,162.1 L 866.7,164.2 L 864.8,169.1 L 861.7,169.2 L 859.5,163.8 L 868.4,157.6 L 876.9,157.4 L 879.8,152.2 L 881.6,153.6 L 887.3,149.6 L 889.7,141.0 L 892.7,140.5 L 894.1,146.8 Z"/>
    <path d="M 901.7,133.0 L 903.7,131.8 L 904.3,135.0 L 888.8,139.9 L 894.4,128.4 L 901.7,133.0 Z"/>
    <path d="M 867.7,163.3 L 872.0,160.7 L 874.4,162.3 L 869.5,165.5 L 867.7,163.3 Z"/>
    <path d="M 335.8,315.9 L 339.1,323.8 L 345.0,324.6 L 346.1,329.2 L 349.2,329.4 L 345.3,339.1 L 337.2,338.4 L 339.5,332.7 L 325.9,324.3 L 328.4,316.7 L 335.8,315.9 Z"/>
    <path d="M 644.4,205.1 L 647.5,211.9 L 644.9,214.9 L 620.8,223.5 L 618.3,216.1 L 620.5,209.2 L 630.6,211.0 L 636.4,206.2 L 644.4,205.1 Z"/>
    <path d="M 597.1,175.2 L 604.2,173.3 L 605.6,171.9 L 602.8,169.0 L 608.9,167.1 L 624.2,175.7 L 631.8,176.2 L 639.3,182.9 L 644.4,193.6 L 653.4,194.4 L 652.8,202.2 L 636.4,206.2 L 630.6,211.0 L 620.5,209.2 L 618.8,212.8 L 608.7,198.5 L 606.9,191.6 L 596.2,178.9 L 597.1,175.2 Z"/>
    <path d="M 594.4,158.7 L 591.5,157.8 L 596.0,156.9 L 594.4,158.7 Z"/>
    <path d="M 591.6,160.1 L 592.7,158.4 L 594.5,159.0 L 591.6,160.1 Z"/>
    <path d="M 494.0,158.4 L 496.4,166.8 L 475.9,176.7 L 475.6,181.7 L 468.4,182.3 L 459.0,197.9 L 452.7,198.1 L 459.9,184.2 L 473.4,173.5 L 476.0,164.0 L 483.5,156.7 L 494.0,158.4 Z"/>
    <path d="M 602.4,196.4 L 569.4,196.4 L 569.9,168.8 L 595.2,169.8 L 597.0,174.8 L 594.9,179.6 L 589.8,174.0 L 602.4,196.4 Z"/>
    <path d="M 569.2,167.8 L 569.4,202.2 L 566.2,203.4 L 544.1,192.4 L 539.3,195.0 L 528.6,189.6 L 525.9,184.6 L 527.6,169.4 L 531.9,164.3 L 553.0,172.6 L 557.9,165.5 L 569.2,167.8 Z"/>
    <path d="M 632.7,236.9 L 624.9,245.6 L 609.9,250.1 L 600.4,247.2 L 591.5,237.5 L 601.2,218.3 L 605.3,216.8 L 615.6,221.1 L 617.6,223.8 L 616.0,228.1 L 618.8,228.4 L 621.3,233.5 L 632.7,236.9 Z"/>
    <path d="M 617.6,223.8 L 620.3,224.2 L 618.8,228.4 L 616.0,228.1 L 617.6,223.8 Z"/>
    <path d="M 636.0,227.0 L 635.9,232.7 L 632.7,236.9 L 621.3,233.5 L 618.2,229.5 L 619.8,226.9 L 622.5,229.8 L 636.0,227.0 Z"/>
    <path d="M 594.2,262.7 L 582.2,263.9 L 586.8,249.1 L 594.5,247.7 L 595.8,249.7 L 597.3,254.5 L 594.2,262.7 Z"/>
    <path d="M 584.5,263.3 L 585.4,266.6 L 580.6,268.2 L 581.4,264.7 L 584.5,263.3 Z"/>
    <path d="M 551.6,136.8 L 545.7,132.8 L 544.3,129.3 L 553.8,130.4 L 551.6,136.8 Z"/>
    <path d="M 562.2,137.7 L 563.8,140.6 L 557.2,141.3 L 557.7,138.5 L 562.2,137.7 Z"/>
    <path d="M 552.3,127.4 L 556.2,126.7 L 563.1,131.2 L 562.6,137.3 L 553.4,134.3 L 552.3,127.4 Z"/>
    <path d="M 555.8,137.0 L 553.8,139.0 L 551.3,137.3 L 553.4,134.3 L 555.8,137.0 Z"/>
    <path d="M 557.2,139.1 L 557.3,135.2 L 560.5,136.7 L 559.9,138.0 L 557.2,139.1 Z"/>
    <path d="M 327.9,230.9 L 330.8,228.6 L 330.7,230.8 L 327.9,230.9 Z"/>
    <path d="M 585.6,249.9 L 582.5,246.7 L 577.7,247.3 L 566.4,235.1 L 571.6,229.9 L 574.3,232.7 L 587.1,231.7 L 589.1,225.4 L 592.2,224.8 L 594.4,234.9 L 591.5,237.5 L 598.1,244.1 L 592.8,249.1 L 585.6,249.9 Z"/>
  </g>
  <g opacity="0.20" fill="none" stroke="#67e8f9" stroke-width="0.8">
    <ellipse cx="500" cy="260" rx="470" ry="210"/>
    <ellipse cx="500" cy="260" rx="320" ry="210"/>
    <ellipse cx="500" cy="260" rx="160" ry="210"/>
  </g>
</svg>
